# xmcd
#
# Track frame offsets:
#	150
#	27139
#	42289
#	58877
#	74303
#	93270
#	111640
#	127805
#	146385
#	165216
#
# Disc length: 2447 seconds
#
# Revision: 0
# Processed by: cddbd v1.5.2PL0 Copyright (c) Steve Scherf et al.
# Submitted via: audiograbber 1.83.01
#
DISCID=81098d0a
DTITLE=The Temptations - The Temptations
DYEAR=1981
DGENRE=Pop
TTITLE0=Aiming At Your Heart
TTITLE1=Evil Woman (Gonna Take Your Love)
TTITLE2=The Best Of Both Worlds
TTITLE3=Ready Willing And Able
TTITLE4=Open Their Eyes
TTITLE5=Oh What A Night
TTITLE6=The Life Of A Cowboy
TTITLE7=Just Ain't Havin' Fun
TTITLE8=What Else
TTITLE9=Your Lovin' Is Magic
EXTD=
EXTT0=
EXTT1=
EXTT2=
EXTT3=
EXTT4=
EXTT5=
EXTT6=
EXTT7=
EXTT8=
EXTT9=
PLAYORDER=
